TITLE ""
FILE "Disc1Track40.mp3" MP3
  TRACK 01 AUDIO
    TITLE "Disc1Track40_01"
    INDEX 01 00:00:00
  TRACK 02 AUDIO
    TITLE "Disc1Track40_02"
    INDEX 01 00:01:10
  TRACK 03 AUDIO
    TITLE "Disc1Track40_03"
    INDEX 01 00:04:24
  TRACK 04 AUDIO
    TITLE "Disc1Track40_04"
    INDEX 01 00:05:45
  TRACK 05 AUDIO
    TITLE "Disc1Track40_05"
    INDEX 01 00:11:69
  TRACK 06 AUDIO
    TITLE "Disc1Track40_06"
    INDEX 01 00:12:25
  TRACK 07 AUDIO
    TITLE "Disc1Track40_07"
    INDEX 01 00:13:48
  TRACK 08 AUDIO
    TITLE "Disc1Track40_08"
    INDEX 01 00:14:55
  TRACK 09 AUDIO
    TITLE "Disc1Track40_09"
    INDEX 01 00:16:00
  TRACK 10 AUDIO
    TITLE "Disc1Track40_10"
    INDEX 01 00:17:54
  TRACK 11 AUDIO
    TITLE "Disc1Track40_11"
    INDEX 01 00:18:14
  TRACK 12 AUDIO
    TITLE "Disc1Track40_12"
    INDEX 01 00:19:43
  TRACK 13 AUDIO
    TITLE "Disc1Track40_13"
    INDEX 01 00:21:59
  TRACK 14 AUDIO
    TITLE "Disc1Track40_14"
    INDEX 01 00:23:13
  TRACK 15 AUDIO
    TITLE "Disc1Track40_15"
    INDEX 01 00:27:64
  TRACK 16 AUDIO
    TITLE "Disc1Track40_16"
    INDEX 01 00:28:20
  TRACK 17 AUDIO
    TITLE "Disc1Track40_17"
    INDEX 01 00:29:61
  TRACK 18 AUDIO
    TITLE "Disc1Track40_18"
    INDEX 01 00:30:74
  TRACK 19 AUDIO
    TITLE "Disc1Track40_19"
    INDEX 01 00:32:38
  TRACK 20 AUDIO
    TITLE "Disc1Track40_20"
    INDEX 01 00:36:36
  TRACK 21 AUDIO
    TITLE "Disc1Track40_21"
    INDEX 01 00:36:67
  TRACK 22 AUDIO
    TITLE "Disc1Track40_22"
    INDEX 01 00:38:32
  TRACK 23 AUDIO
    TITLE "Disc1Track40_23"
    INDEX 01 00:40:27
  TRACK 24 AUDIO
    TITLE "Disc1Track40_24"
    INDEX 01 00:41:68
  TRACK 25 AUDIO
    TITLE "Disc1Track40_25"
    INDEX 01 00:42:24
  TRACK 26 AUDIO
    TITLE "Disc1Track40_26"
    INDEX 01 00:43:61
  TRACK 27 AUDIO
    TITLE "Disc1Track40_27"
    INDEX 01 00:44:62
  TRACK 28 AUDIO
    TITLE "Disc1Track40_28"
    INDEX 01 00:46:22
  TRACK 29 AUDIO
    TITLE "Disc1Track40_29"
    INDEX 01 00:50:42
  TRACK 30 AUDIO
    TITLE "Disc1Track40_30"
    INDEX 01 00:50:73
  TRACK 31 AUDIO
    TITLE "Disc1Track40_31"
    INDEX 01 00:52:36
  TRACK 32 AUDIO
    TITLE "Disc1Track40_32"
    INDEX 01 00:53:63
  TRACK 33 AUDIO
    TITLE "Disc1Track40_33"
    INDEX 01 00:55:25
  TRACK 34 AUDIO
    TITLE "Disc1Track40_34"
    INDEX 01 00:57:26
  TRACK 35 AUDIO
    TITLE "Disc1Track40_35"
    INDEX 01 00:57:59
  TRACK 36 AUDIO
    TITLE "Disc1Track40_36"
    INDEX 01 00:59:17
  TRACK 37 AUDIO
    TITLE "Disc1Track40_37"
    INDEX 01 01:00:30
  TRACK 38 AUDIO
    TITLE "Disc1Track40_38"
    INDEX 01 01:01:67
  TRACK 39 AUDIO
    TITLE "Disc1Track40_39"
    INDEX 01 01:02:21
  TRACK 40 AUDIO
    TITLE "Disc1Track40_40"
    INDEX 01 01:03:70
  TRACK 41 AUDIO
    TITLE "Disc1Track40_41"
    INDEX 01 01:05:12
  TRACK 42 AUDIO
    TITLE "Disc1Track40_42"
    INDEX 01 01:06:60
